<?xml version="1.0" encoding="UTF-8" standalone="no"?>
<!-- Created with Inkscape (http://www.inkscape.org/) -->

<svg
   width="104.5104mm"
   height="33.867329mm"
   viewBox="0 0 104.5104 33.867329"
   version="1.1"
   id="svg1"
   xml:space="preserve"
   xmlns="http://www.w3.org/2000/svg"
   xmlns:svg="http://www.w3.org/2000/svg"><defs
     id="defs1" /><g
     id="layer1"
     transform="translate(-49.467842,-158.19769)"><g
       id="g1"
       transform="translate(-4.9040396,26.699771)"><path
         style="fill:#fdfdfd"
         d="m 54.385665,159.34532 0.01379,-6.01927 0.612861,1.64949 c 1.44829,3.89803 4.592672,7.60891 7.958525,9.39235 l 1.852083,0.98136 -5.22552,0.008 -5.22552,0.008 z m 10.875412,4.10104 c 0.09205,-1.78138 0.176779,-2.01614 1.187647,-3.2907 0.92594,-1.16747 1.150705,-1.70766 1.504808,-3.61662 0.228955,-1.23429 0.59442,-2.6705 0.812146,-3.19159 0.389173,-0.93143 0.385284,-0.94744 -0.230044,-0.94744 -0.34425,0 -0.670977,0.1352 -0.726061,0.30045 -0.05508,0.16525 -0.265661,-0.20104 -0.467949,-0.81398 -0.238312,-0.72209 -0.27495,-1.17717 -0.10407,-1.29264 0.14505,-0.098 0.378548,-0.59493 0.518885,-1.10425 0.144989,-0.52621 0.500266,-1.03494 0.822843,-1.17827 0.4633,-0.20585 0.593405,-0.5464 0.707559,-1.85208 0.07693,-0.87992 0.141112,-2.09076 0.142628,-2.69074 0.0023,-0.91206 0.102057,-1.11749 0.608519,-1.25316 0.787604,-0.21098 2.56943,-0.21333 3.612296,-0.005 0.699227,0.13985 0.800673,0.25657 0.671233,0.7723 -0.12292,0.48975 -0.03302,0.62454 0.463647,0.69515 0.785549,0.11169 1.131389,0.85708 1.713628,3.69341 0.404979,1.97282 0.421261,2.43999 0.119869,3.43958 -0.590718,1.95916 -0.600918,1.98161 -0.736095,1.61972 -0.09893,-0.26487 -1.146988,-0.50932 -1.134358,-0.26459 0.0019,0.0364 0.226036,0.78052 0.498131,1.65365 0.272095,0.87312 0.576941,2.19478 0.677435,2.93702 0.179,1.32207 0.312405,1.59804 1.803397,3.73053 0.549616,0.78609 0.774703,1.49108 0.898155,2.8131 l 0.164738,1.76414 h -6.814053 -6.814054 z m 3.750003,-13.26274 c -0.135174,-1.44754 -0.230053,-1.7202 -0.500563,-1.4385 -0.292433,0.30454 -0.992766,2.37414 -0.836155,2.47097 0.03244,0.0201 0.349448,0.23237 0.70447,0.47182 0.355022,0.23944 0.680042,0.4008 0.722265,0.35857 0.04222,-0.0422 0.0017,-0.88051 -0.09002,-1.86286 z m 6.740209,1.2086 c 0.276549,-0.18575 0.283444,-0.47635 0.03473,-1.46407 -0.281328,-1.11725 -0.476388,-1.36186 -0.929954,-1.16616 -0.08432,0.0364 -0.196433,0.81075 -0.249142,1.72083 -0.101756,1.75695 -0.108953,1.75123 1.144361,0.9094 z m 0.724281,-2.10107 c -0.0923,-0.5457 -0.377714,-1.82562 -0.63425,-2.84427 -0.395745,-1.57141 -0.559868,-1.86563 -1.082998,-1.94147 -0.53131,-0.077 -0.593667,-0.004 -0.450952,0.52917 0.09109,0.3402 0.167241,1.15587 0.169228,1.81258 0.003,0.9826 0.109027,1.24028 0.598925,1.45521 0.329822,0.1447 0.708211,0.64467 0.848465,1.12107 0.348374,1.18334 0.757512,1.08522 0.551582,-0.13229 z m 4.35464,15.10154 c 2.655011,-1.48781 5.72018,-4.73706 7.070162,-7.49477 3.139316,-6.4129 2.284615,-13.74034 -2.228378,-19.10409 -2.571275,-3.05599 -6.7256,-5.49837 -10.398033,-6.11312 -0.363802,-0.0609 18.299243,-0.12694 41.473429,-0.14675 l 42.1349,-0.036 v 16.93334 16.93333 l -39.88594,-0.004 -39.885931,-0.004 z m 73.18262,-7.09064 c 1.49013,-0.44252 2.7814,-1.62245 3.40084,-3.10761 1.07991,-2.58916 -0.1334,-5.08661 -3.39357,-6.98524 -2.25939,-1.3158 -2.81073,-1.88323 -2.81073,-2.89271 0,-1.0543 0.56653,-1.54732 1.77804,-1.54732 0.71758,0 1.11054,0.19665 1.69087,0.84615 l 0.75604,0.84615 0.67425,-1.33058 0.67426,-1.33059 -1.39767,-0.65068 c -2.65919,-1.238 -5.70892,-0.67416 -7.24474,1.3394 -0.64395,0.84426 -0.75924,1.24137 -0.76304,2.62822 -0.006,2.09169 0.73031,3.12697 3.31467,4.66231 2.21944,1.31854 3.16315,2.35786 3.16315,3.4836 0,2.29475 -2.97302,2.80393 -4.66611,0.79916 l -0.56508,-0.6691 -0.72849,1.24308 c -0.65748,1.12191 -0.68859,1.283 -0.31907,1.65252 0.56031,0.56031 3.029,1.38369 4.18021,1.39423 0.51929,0.005 1.53457,-0.1667 2.25617,-0.38099 z m -47.74338,-3.48566 -0.093,-3.611 2.27586,0.14199 2.27585,0.14199 4e-5,-1.35979 4e-5,-1.35978 -2.249,0.0933 -2.24899,0.0933 v -2.44445 -2.44445 l 2.51354,0.13147 2.51354,0.13148 v -1.28605 -1.28605 h -4.56406 -4.56406 v 8.33438 8.33437 l 2.11666,1.4e-4 2.11667,1.5e-4 z m 14.98778,2.00012 0.0781,-1.47829 -2.14867,0.12438 -2.14867,0.12439 0.0862,-6.91453 0.0862,-6.91454 -2.11667,4e-5 -2.11667,4e-5 0.0879,7.24242 c 0.0513,4.22805 -0.0203,7.63448 -0.17219,8.18441 -0.14305,0.51809 -0.18963,1.01246 -0.1035,1.09859 0.0861,0.0861 2.00908,0.12392 4.27323,0.084 l 4.11662,-0.0726 z m 16.25575,1.46045 c 0.0826,-0.0826 0.0396,-0.55058 -0.0956,-1.04001 -0.13514,-0.48943 -0.21262,-2.5663 -0.17219,-4.61526 l 0.0735,-3.72538 2.02873,4.69924 2.02874,4.69925 1.87769,0.0778 c 1.35347,0.0561 1.91224,-0.0178 2.00142,-0.26458 0.068,-0.18832 0.15563,-3.94412 0.19461,-8.34623 l 0.0709,-8.00383 -1.81425,1.9e-4 c -1.63459,1.6e-4 -1.79262,0.046 -1.59592,0.4632 0.12007,0.25466 0.2485,2.36802 0.2854,4.69636 0.0552,3.48093 0.01,4.11757 -0.25615,3.58199 -0.17779,-0.35823 -1.0975,-2.44183 -2.04381,-4.63021 l -1.72056,-3.97887 -2.1159,-0.0757 -2.11589,-0.0757 v 8.34399 8.34399 l 1.60955,-5e-5 c 0.88525,-3e-5 1.6771,-0.0676 1.75968,-0.15019 z m -5.35301,-1.37122 5.9e-4,-1.25677 -2.51414,0.0843 -2.51413,0.0843 v -2.4334 -2.4334 l 2.11667,0.12253 2.11666,0.12253 v -1.3677 -1.3677 l -2.11666,0.12254 -2.11667,0.12253 v -2.31901 -2.319 l 2.52656,0.13215 2.52656,0.13216 -0.0792,-1.22058 -0.0792,-1.22059 -4.72705,-0.0724 c -4.44544,-0.0681 -4.71406,-0.0444 -4.50899,0.39687 0.31937,0.68724 0.45717,13.37005 0.1604,14.76155 l -0.25292,1.18583 h 4.73043 4.73042 z m -65.348764,-5.90903 c 0.0039,-0.37631 0.580156,-2.95367 1.074627,-4.8066 0.170646,-0.63946 0.420219,-0.99219 0.702021,-0.99219 0.401505,0 0.402287,0.027 0.0096,0.33073 -0.253233,0.19583 -0.65708,1.40645 -0.990084,2.96799 -0.530562,2.48794 -0.804995,3.34974 -0.79613,2.50007 z m -12.419994,-11.81806 -0.01933,-6.68073 7.342186,0.0221 c 6.988855,0.021 7.265878,0.0405 5.756494,0.40535 -5.692771,1.37612 -10.532294,5.82314 -12.567344,11.54809 l -0.492672,1.38597 z"
         id="path8" /><path
         style="fill:#cdcfd6"
         d="m 150.89518,157.51093 c 0.19099,-0.0764 0.4192,-0.067 0.50712,0.0209 0.0879,0.0879 -0.0684,0.15045 -0.34727,0.13897 -0.30822,-0.0127 -0.37092,-0.0754 -0.15985,-0.15986 z m -47.76584,-0.27865 c 0.69561,-0.0547 1.76717,-0.054 2.38125,0.001 0.61407,0.0555 0.0449,0.10023 -1.26476,0.0994 -1.30968,-8e-4 -1.81211,-0.0462 -1.11649,-0.10089 z m 9.62325,-0.004 c -0.0679,-0.10914 1.14548,-0.16707 2.69637,-0.12874 5.20249,0.1286 5.76153,0.22675 1.57863,0.27715 -2.28336,0.0275 -4.20711,-0.0393 -4.275,-0.14841 z m 21.65574,0.0404 c 1.21783,-0.19793 3.2484,-0.22408 3.1345,-0.0404 -0.0677,0.10914 -0.91967,0.18223 -1.89334,0.16241 -0.97368,-0.0198 -1.5322,-0.0747 -1.24116,-0.12204 z m 6.92604,-0.0292 c -0.0717,-0.11527 0.74968,-0.17047 1.82536,-0.12267 l 1.95578,0.0869 0.0769,-7.36294 0.0769,-7.36295 -0.007,7.40834 -0.007,7.40833 -1.89574,0.0773 c -1.04265,0.0425 -1.95441,-0.017 -2.02614,-0.13229 z m -6.94305,-8.14707 c 1.5e-4,-3.78355 0.0373,-5.29456 0.0826,-3.35782 0.0453,1.93674 0.0451,5.03236 -2.8e-4,6.87916 -0.0454,1.8468 -0.0825,0.2622 -0.0823,-3.52134 z m -7.42823,3.30729 c 0,-1.38245 0.0446,-1.948 0.0991,-1.25677 0.0545,0.69122 0.0545,1.82231 0,2.51354 -0.0545,0.69122 -0.0991,0.12567 -0.0991,-1.25677 z m -51.139074,-1.47726 c 0.01269,-0.30822 0.07539,-0.37092 0.159852,-0.15985 0.07643,0.19099 0.06703,0.4192 -0.02089,0.50712 -0.08792,0.0879 -0.150453,-0.0683 -0.138964,-0.34727 z m -9.016721,-0.38313 c 0,-0.14095 0.178594,-0.25628 0.396875,-0.25628 0.218281,0 0.396875,0.0468 0.396875,0.10398 0,0.0572 -0.178594,0.17252 -0.396875,0.25628 -0.218281,0.0838 -0.396875,0.037 -0.396875,-0.10398 z m 43.738235,-1.4469 c 0.001,-0.87313 0.0509,-1.19842 0.10976,-0.72287 0.0589,0.47555 0.0577,1.18992 -0.003,1.5875 -0.0604,0.39758 -0.10855,0.008 -0.10706,-0.86463 z m -35.183375,-0.51753 c 0,-0.21188 0.101161,-0.32272 0.224802,-0.2463 0.123641,0.0764 0.156302,0.24977 0.07258,0.38523 -0.213949,0.34618 -0.297382,0.3072 -0.297382,-0.13893 z m 14.241081,-1.20227 c 0,-0.3638 0.06005,-0.51263 0.133452,-0.33073 0.0734,0.18191 0.0734,0.47956 0,0.66146 -0.0734,0.1819 -0.133452,0.0331 -0.133452,-0.33073 z m 37.358384,-1.98437 c -8.1e-4,-1.30969 0.0439,-1.87883 0.0994,-1.26476 0.0555,0.61408 0.0561,1.68564 0.001,2.38125 -0.0547,0.69562 -0.10008,0.1932 -0.10089,-1.11649 z m -57.706929,-0.83669 c -0.378475,-0.15272 -0.449607,-0.61852 -0.09445,-0.61852 0.129952,0 0.304809,0.17859 0.388571,0.39688 0.08376,0.21828 0.126267,0.38747 0.09445,0.37598 -0.03181,-0.0115 -0.20667,-0.0809 -0.388571,-0.15434 z m 81.710989,-0.24369 c 0.0127,-0.30823 0.0754,-0.37092 0.15985,-0.15986 0.0764,0.191 0.067,0.4192 -0.0209,0.50712 -0.0879,0.0879 -0.15045,-0.0684 -0.13896,-0.34726 z m -19.00417,-2.09462 c 0.003,-0.58208 0.0571,-0.78906 0.12041,-0.45994 0.0633,0.32912 0.0609,0.80537 -0.005,1.05834 -0.0662,0.25296 -0.118,-0.0163 -0.11507,-0.5984 z m -47.584564,-5.75469 -0.504028,-0.59531 0.595313,0.50403 c 0.559447,0.47366 0.715761,0.68659 0.504028,0.68659 -0.05021,0 -0.318097,-0.26789 -0.595313,-0.59531 z"
         id="path7" /><path
         style="fill:#a2a6b0"
         d="m 64.896071,164.24011 c 0.14362,-1.85342 0.260455,-2.01166 0.293032,-0.39687 0.01688,0.83674 -0.06175,1.52135 -0.174737,1.52135 -0.112986,0 -0.166219,-0.50602 -0.118295,-1.12448 z m -5.775935,-2.77812 -0.911798,-0.99219 0.992187,0.9118 c 0.923506,0.84868 1.113839,1.07257 0.911798,1.07257 -0.04421,0 -0.490698,-0.44648 -0.992187,-0.99218 z m 62.008724,-5.75469 c 10e-4,-0.87313 0.0509,-1.19842 0.10976,-0.72287 0.0589,0.47555 0.0577,1.18993 -0.003,1.5875 -0.0604,0.39758 -0.10855,0.008 -0.10706,-0.86463 z m -15.06535,-2.77813 c 0,-1.52796 0.0437,-2.15304 0.0972,-1.38906 0.0534,0.76399 0.0534,2.01414 0,2.77813 -0.0534,0.76398 -0.0972,0.1389 -0.0972,-1.38907 z m 21.79638,1.92294 c 0.61847,-0.0557 1.6305,-0.0557 2.24896,0 0.61846,0.0557 0.11245,0.10128 -1.12448,0.10128 -1.23692,0 -1.74294,-0.0456 -1.12448,-0.10128 z m -10.18282,-0.26071 c 0.40219,-0.0608 0.9975,-0.0592 1.32292,0.004 0.32542,0.0628 -0.004,0.11256 -0.73124,0.11057 -0.72761,-0.002 -0.99386,-0.0534 -0.59168,-0.11418 z m -49.926723,-1.73978 c 0.09936,-0.26094 0.247304,-0.40778 0.328766,-0.32632 0.08146,0.0815 1.68e-4,0.29495 -0.180653,0.47443 -0.261307,0.25936 -0.291698,0.22897 -0.148113,-0.14811 z m 89.860603,-0.31932 c 0.005,-0.43656 0.0647,-0.58313 0.13177,-0.32569 0.0671,0.25743 0.0627,0.61461 -0.01,0.79375 -0.0725,0.17913 -0.12736,-0.0315 -0.12197,-0.46806 z m -82.601572,-0.76135 c 0,-0.0549 0.208359,-0.26331 0.46302,-0.46303 0.419644,-0.3291 0.429003,-0.31974 0.0999,0.0999 -0.345643,0.44073 -0.562915,0.58089 -0.562915,0.36313 z m 14.593858,-1.75219 c 0,-0.3638 0.06005,-0.51263 0.133452,-0.33073 0.0734,0.1819 0.0734,0.47956 0,0.66146 -0.0734,0.1819 -0.133452,0.0331 -0.133452,-0.33073 z m -13.535525,0.0312 c 0,-0.14552 0.119062,-0.33817 0.264583,-0.42811 0.145521,-0.0899 0.264583,-0.0445 0.264583,0.10106 0,0.14552 -0.119062,0.33817 -0.264583,0.42811 -0.145521,0.0899 -0.264583,0.0445 -0.264583,-0.10106 z m 31.026029,-2.07318 c 0.40218,-0.0608 0.9975,-0.0592 1.32292,0.004 0.32542,0.0628 -0.004,0.11256 -0.73124,0.11057 -0.72761,-0.002 -0.99386,-0.0534 -0.59168,-0.11419 z m -38.14889,-0.49364 c 0.01269,-0.30823 0.07539,-0.37092 0.159852,-0.15986 0.07643,0.191 0.06703,0.4192 -0.02089,0.50712 -0.08792,0.0879 -0.150453,-0.0684 -0.138964,-0.34726 z m 37.11616,-1.96233 c 0,-1.38245 0.0446,-1.94799 0.0991,-1.25677 0.0545,0.69122 0.0545,1.82232 0,2.51354 -0.0545,0.69123 -0.0991,0.12568 -0.0991,-1.25677 z m -31.559911,1.69774 c 0.0127,-0.30822 0.07539,-0.37092 0.159853,-0.15985 0.07643,0.191 0.06703,0.4192 -0.02089,0.50712 -0.08792,0.0879 -0.150452,-0.0684 -0.138963,-0.34727 z m 72.791101,-2.09461 c 0.005,-0.43657 0.0647,-0.58313 0.13177,-0.3257 0.0671,0.25743 0.0627,0.61462 -0.01,0.79375 -0.0725,0.17913 -0.12736,-0.0315 -0.12197,-0.46805 z m -36.25502,-2.83803 -0.0445,-1.25052 -4.56406,-0.0791 -4.56407,-0.0791 4.57237,-0.0595 c 5.06869,-0.0659 4.93742,-0.11287 4.75016,1.69864 -0.10067,0.97381 -0.10746,0.96337 -0.14993,-0.23051 z m 16.35969,-1.26302 -4.63021,-0.15128 4.54845,-0.0567 c 2.80972,-0.035 4.61096,0.0445 4.71197,0.20793 0.0899,0.14553 0.12673,0.23909 0.0818,0.20794 -0.045,-0.0312 -2.16535,-0.12473 -4.71197,-0.20794 z m 6.85062,-0.0786 c 0.11666,-0.11597 1.09355,-0.1744 2.17085,-0.12985 l 1.95874,0.081 -2.17085,0.12985 c -1.19397,0.0714 -2.0754,0.035 -1.95874,-0.081 z m 9.55355,0.0786 -1.71979,-0.17325 1.63803,-0.0457 c 0.90091,-0.0251 1.71161,0.0734 1.80155,0.21891 0.0899,0.14553 0.12673,0.24404 0.0818,0.21892 -0.045,-0.0251 -0.85567,-0.12363 -1.80155,-0.21892 z m -29.82379,-0.1948 c 0.69562,-0.0547 1.76718,-0.054 2.38125,0.001 0.61408,0.0555 0.0449,0.10023 -1.26475,0.0994 -1.30969,-8.1e-4 -1.81211,-0.0462 -1.1165,-0.10089 z m -44.309148,-9.24635 c 0.190996,-0.0764 0.419199,-0.067 0.507118,0.0209 0.08792,0.0879 -0.06835,0.15045 -0.347266,0.13896 -0.308224,-0.0127 -0.370919,-0.0754 -0.159852,-0.15985 z"
         id="path6" /><path
         style="fill:#72778a"
         d="m 116.92699,148.56355 c 1.9e-4,-3.34698 0.0381,-4.67972 0.0843,-2.96164 0.0462,1.71808 0.046,4.45652 -3.4e-4,6.08542 -0.0463,1.6289 -0.0841,0.2232 -0.0839,-3.12378 z m -10.10147,1.53028 c 0.40018,-0.0606 1.05503,-0.0606 1.45521,0 0.40018,0.0606 0.0728,0.11022 -0.72761,0.11022 -0.80036,0 -1.12778,-0.0496 -0.7276,-0.11022 z m -29.943171,-0.494 c 0.0127,-0.30822 0.07539,-0.37092 0.159852,-0.15985 0.07643,0.191 0.06703,0.4192 -0.02089,0.50712 -0.08792,0.0879 -0.150453,-0.0684 -0.138964,-0.34727 z m 50.845251,0.22942 c 0.40018,-0.0606 1.05503,-0.0606 1.45521,0 0.40018,0.0606 0.0728,0.11022 -0.7276,0.11022 -0.80037,0 -1.12779,-0.0496 -0.72761,-0.11022 z m -38.124364,-0.86883 c 0,-0.3638 0.06005,-0.51263 0.133452,-0.33073 0.0734,0.18191 0.0734,0.47956 0,0.66146 -0.0734,0.1819 -0.133452,0.0331 -0.133452,-0.33073 z m 37.996814,-1.25008 c 0.47555,-0.0589 1.18992,-0.0577 1.5875,0.003 0.39757,0.0604 0.008,0.10855 -0.86464,0.10706 -0.87312,-0.001 -1.19841,-0.0509 -0.72286,-0.10976 z m -58.634312,-1.13117 c 0,-0.3638 0.06005,-0.51263 0.133452,-0.33073 0.0734,0.18191 0.0734,0.47956 0,0.66146 -0.0734,0.1819 -0.133452,0.0331 -0.133452,-0.33073 z m -10.625109,-9.07862 c 0,-0.0455 0.386953,-0.43249 0.859896,-0.8599 l 0.859896,-0.7771 -0.777106,0.8599 c -0.724371,0.80154 -0.942686,0.98151 -0.942686,0.7771 z"
         id="path5" /><path
         style="fill:#50576e"
         d="m 83.740627,162.1068 c 0,-0.0455 0.386953,-0.43249 0.859895,-0.8599 l 0.859896,-0.7771 -0.777105,0.85989 c -0.724371,0.80155 -0.942686,0.98152 -0.942686,0.77711 z m 72.231243,-6.10252 c 0,-0.0549 0.20836,-0.2633 0.46302,-0.46302 0.41964,-0.32911 0.429,-0.31975 0.0999,0.0999 -0.34565,0.44073 -0.56292,0.58089 -0.56292,0.36313 z m -53.59513,-6.91156 c 1.5e-4,-3.78355 0.0373,-5.29456 0.0826,-3.35782 0.0453,1.93674 0.0451,5.03236 -2.8e-4,6.87916 -0.0454,1.8468 -0.0825,0.2622 -0.0823,-3.52134 z m 10.84734,0 c -1.6e-4,-3.63803 0.0371,-5.163 0.0828,-3.38884 0.0457,1.77415 0.0458,4.75072 3e-4,6.61458 -0.0456,1.86386 -0.0829,0.41228 -0.0831,-3.22574 z m -44.503318,0.92604 c 0,-0.50933 0.05445,-0.71769 0.121,-0.46302 0.06655,0.25466 0.06655,0.67138 0,0.92604 -0.06655,0.25466 -0.121,0.0463 -0.121,-0.46302 z m 83.480798,-9.43565 c 0.1819,-0.0734 0.47955,-0.0734 0.66146,0 0.1819,0.0734 0.0331,0.13345 -0.33073,0.13345 -0.36381,0 -0.51263,-0.06 -0.33073,-0.13345 z m -79.623042,-9.00134 c 0.190997,-0.0764 0.4192,-0.067 0.507118,0.0209 0.08792,0.0879 -0.06835,0.15045 -0.347265,0.13896 -0.308225,-0.0127 -0.370919,-0.0754 -0.159853,-0.15985 z"
         id="path4" /><path
         style="fill:#202b4f"
         d="m 122.89844,156.96407 c -2.9e-4,-0.10914 1.39869,-0.16734 3.10885,-0.12934 5.57112,0.12382 6.1105,0.22673 1.45573,0.27775 -2.51024,0.0275 -4.5643,-0.0393 -4.56458,-0.14841 z m 0.3792,-7.87135 c 1.8e-4,-3.4925 0.0378,-4.88466 0.0837,-3.09368 0.0458,1.79097 0.0457,4.64847 -3.2e-4,6.34999 -0.046,1.70153 -0.0835,0.23619 -0.0833,-3.25631 z m -48.317872,3.39113 c 0.190996,-0.0764 0.419199,-0.067 0.507118,0.0209 0.08792,0.0879 -0.06835,0.15045 -0.347265,0.13896 -0.308225,-0.0127 -0.37092,-0.0754 -0.159853,-0.15985 z m 67.624172,-6.03697 c 3.7e-4,-2.18281 0.0413,-3.04057 0.0911,-1.90613 0.0497,1.13443 0.0494,2.92037 -6.8e-4,3.96875 -0.0501,1.04837 -0.0908,0.12019 -0.0904,-2.06262 z m -11.40723,2.38125 c 0.002,-0.7276 0.0534,-0.99386 0.11419,-0.59167 0.0608,0.40218 0.0592,0.99749 -0.004,1.32291 -0.0628,0.32543 -0.11256,-0.004 -0.11058,-0.73124 z M 71.503649,131.58728 c 0.181901,-0.0734 0.479557,-0.0734 0.661458,0 0.181901,0.0734 0.03307,0.13345 -0.330729,0.13345 -0.363802,0 -0.51263,-0.06 -0.330729,-0.13345 z"
         id="path3" /><path
         style="fill:#00113c"
         d="m 62.909233,163.86931 c -0.907008,-0.53785 -2.276226,-1.57299 -3.042708,-2.30032 -0.766482,-0.72733 -1.482901,-1.30196 -1.592042,-1.27695 -0.10914,0.025 -0.179535,-0.0438 -0.156432,-0.15297 0.08346,-0.3943 -0.367735,-1.11792 -0.605452,-0.971 -0.133877,0.0827 -0.216938,0.0523 -0.184578,-0.0677 0.03236,-0.11995 -0.367807,-1.05154 -0.889259,-2.07018 -0.521452,-1.01865 -1.100831,-2.38787 -1.287508,-3.04271 -0.186678,-0.65485 -0.438405,-1.30374 -0.559394,-1.44198 -0.283884,-0.32437 -0.289051,-7.02469 -0.0054,-7.02469 0.231705,0 0.994242,-2.55369 0.93358,-3.12649 -0.02029,-0.1916 0.02511,-0.28637 0.100884,-0.21059 0.16767,0.16767 1.54804,-2.52682 1.451914,-2.83415 -0.03752,-0.11996 0.04132,-0.1504 0.175195,-0.0677 0.261244,0.16145 0.689334,-0.59958 0.583403,-1.03715 -0.03523,-0.14552 0.0071,-0.19347 0.09397,-0.10656 0.200448,0.20045 2.969425,-2.46807 2.847583,-2.74427 -0.04974,-0.11274 0.0077,-0.17465 0.127675,-0.13756 0.378707,0.11708 2.478069,-1.27707 2.269404,-1.50707 -0.109569,-0.12077 -0.07022,-0.1462 0.08744,-0.0565 0.290259,0.16514 3.371069,-0.96254 3.172405,-1.1612 -0.05922,-0.0592 0.150296,-0.12587 0.465591,-0.14811 0.315296,-0.0222 1.525764,-0.15091 2.689931,-0.28593 3.119977,-0.36186 6.276935,0.004 8.911368,1.03309 1.210622,0.47285 2.299277,0.83175 2.419235,0.79755 0.119957,-0.0342 0.153456,0.0424 0.07444,0.17027 -0.158039,0.25571 1.136535,0.97219 1.559537,0.86312 0.145521,-0.0375 0.179324,0.017 0.07512,0.12125 -0.194534,0.19453 1.103184,1.35326 1.405987,1.2554 0.195051,-0.063 1.285779,1.04757 1.222779,1.24506 -0.02321,0.0728 0.344782,0.69475 0.817761,1.3822 1.074064,1.5611 2.379684,4.29537 2.593231,5.43082 0.08895,0.47294 0.246914,0.8599 0.351037,0.8599 0.104122,0 0.136889,0.35718 0.07282,0.79375 -0.06407,0.43656 -0.01369,0.79375 0.111969,0.79375 0.125657,0 0.228468,1.00066 0.228468,2.22369 0,1.22303 -0.07349,2.17827 -0.16331,2.12276 -0.08982,-0.0555 -0.233872,0.41388 -0.320115,1.04309 -0.230509,1.68175 -0.896172,3.516 -1.980888,5.45837 -0.528227,0.94589 -0.93104,1.81794 -0.89514,1.9379 0.0359,0.11996 -0.02697,0.17773 -0.139721,0.1284 -0.177488,-0.0777 -3.206295,2.83953 -3.140048,3.02434 0.01355,0.0378 -0.02145,0.0425 -0.07779,0.0104 -0.05633,-0.0321 -0.413522,0.16073 -0.79375,0.42847 -0.380228,0.26774 -1.197339,0.74289 -1.815803,1.05589 l -1.124479,0.5691 v -1.43895 c 0,-1.64967 -0.198647,-2.34795 -0.597771,-2.10128 -0.153299,0.0947 -0.200113,0.0461 -0.104485,-0.10868 0.09529,-0.15418 -0.221805,-0.75319 -0.704657,-1.33112 -0.684414,-0.8192 -0.954672,-1.48079 -1.226186,-3.0017 -0.191551,-1.073 -0.504741,-2.39489 -0.695977,-2.93754 -0.334349,-0.94875 -0.325544,-0.98432 0.229255,-0.92604 0.488023,0.0513 0.654336,-0.18164 1.078932,-1.51086 0.477708,-1.49549 0.48109,-1.66816 0.06995,-3.57188 -0.751324,-3.47893 -0.947026,-3.99315 -1.616586,-4.24772 -0.356878,-0.13568 -0.662366,-0.49938 -0.711688,-0.84729 -0.08226,-0.58028 -0.205285,-0.61324 -2.56046,-0.686 -2.506577,-0.0774 -3.214498,0.1255 -3.214498,0.92147 0,0.4411 -0.813372,1.33539 -1.039434,1.14286 -0.230851,-0.19662 -0.8532,1.85403 -0.90183,2.97154 -0.02371,0.54488 -0.146287,0.99136 -0.272392,0.99219 -0.126105,8.2e-4 -0.173175,0.295 -0.104601,0.65372 0.06857,0.35873 -0.0068,0.71591 -0.167593,0.79375 -0.21331,0.10329 -0.21331,0.17976 0,0.28305 0.160751,0.0778 0.236168,0.43502 0.167593,0.79375 -0.07057,0.36916 -6.9e-5,0.65222 0.162443,0.65222 0.159099,0 0.211791,0.19632 0.118173,0.44028 -0.112832,0.29404 -0.06714,0.37736 0.137565,0.25084 0.201509,-0.12454 0.251494,-0.0461 0.145906,0.22911 -0.09272,0.24162 0.05222,0.61091 0.34288,0.87363 0.489841,0.44277 0.718551,2.00397 0.251265,1.71517 -0.128691,-0.0795 -0.179077,0.22949 -0.111969,0.68672 0.06711,0.45724 0.0097,0.83134 -0.12759,0.83134 -0.137282,0 -0.192703,0.29765 -0.123158,0.66146 0.06955,0.3638 0.02389,0.66145 -0.101448,0.66145 -0.125341,0 -0.227893,0.21157 -0.227893,0.47014 0,0.25858 -0.472048,1.09838 -1.048997,1.86623 -1.001587,1.33299 -1.241695,2.01306 -1.395787,3.95338 l -0.06876,0.86579 z m 22.15431,-26.37725 c 0,-0.0502 -0.26789,-0.3181 -0.595312,-0.59532 l -0.595313,-0.50402 0.504028,0.59531 c 0.473662,0.55945 0.686597,0.71576 0.686597,0.50403 z m 66.605237,19.67032 c -1.44091,-0.18455 -3.89899,-0.95717 -3.89899,-1.22552 0,-0.0679 0.18601,-0.48325 0.41335,-0.92288 0.3117,-0.60276 0.49662,-0.73023 0.75195,-0.51832 0.18622,0.15455 0.43602,0.19274 0.55511,0.0849 0.11908,-0.10787 0.13894,-0.0604 0.0441,0.10555 -0.19983,0.34973 1.32998,1.15352 2.19544,1.15352 1.31491,0 2.63894,-1.22997 2.64872,-2.46053 0.0107,-1.34419 -1.34734,-3.1252 -2.1966,-2.88079 -0.11996,0.0345 -0.14799,-0.0507 -0.0623,-0.18933 0.16251,-0.26295 -0.84667,-0.71473 -1.30709,-0.58514 -0.14553,0.041 -0.17839,-0.0117 -0.073,-0.11708 0.10535,-0.10536 -0.34747,-0.5334 -1.00627,-0.95119 -0.66325,-0.42062 -1.34701,-1.11446 -1.53211,-1.55469 -0.18386,-0.43729 -0.39353,-0.73582 -0.46593,-0.66342 -0.0724,0.0724 -0.0475,-0.58179 0.0553,-1.45376 0.20811,-1.76501 0.74644,-2.78105 1.70483,-3.21772 0.35154,-0.16018 0.5832,-0.38178 0.5148,-0.49245 -0.0684,-0.11067 0.13255,-0.13403 0.44655,-0.0519 0.31934,0.0835 0.50408,0.0412 0.41925,-0.0961 -0.0916,-0.14818 0.65189,-0.17756 1.87686,-0.0742 1.11568,0.0942 2.1362,0.10789 2.26782,0.0305 0.13163,-0.0774 0.15437,-0.003 0.0505,0.1648 -0.11065,0.17904 -0.0245,0.30546 0.20809,0.30546 0.61849,0 0.7733,0.48956 0.42256,1.3363 l -0.32109,0.77519 -0.78302,-0.65887 c -1.55747,-1.31052 -3.91743,-0.5311 -3.91743,1.29381 0,1.18787 0.41323,1.64594 2.76787,3.06821 1.2316,0.74392 2.46608,1.64092 2.74329,1.99333 0.2772,0.35241 0.58564,0.55912 0.68541,0.45935 0.0998,-0.0998 0.0953,0.0429 -0.01,0.31696 -0.11041,0.28774 -0.0872,0.43405 0.055,0.34619 0.36708,-0.22687 0.45102,2.59875 0.10808,3.6379 -0.2474,0.7496 -1.1897,1.76995 -2.51333,2.72149 -0.14552,0.10461 -0.54569,0.14999 -0.88926,0.10084 -0.39788,-0.0569 -0.56032,0.0148 -0.44741,0.19747 0.0975,0.15775 0.14048,0.27122 0.0955,0.25214 -0.045,-0.0191 -0.768,-0.12259 -1.60673,-0.23002 z m -48.92589,-7.5403 c 0.0571,-5.09013 -0.005,-7.54082 -0.19013,-7.54082 -0.15108,0 -0.20616,-0.1786 -0.1224,-0.39688 0.12625,-0.32899 0.8489,-0.39687 4.22503,-0.39687 h 4.07273 v 0.82378 c 0,0.76153 -0.0589,0.81513 -0.77977,0.70933 -0.42888,-0.063 -0.71951,-0.0169 -0.64585,0.10226 0.0737,0.11919 -0.71084,0.21671 -1.74334,0.21671 h -1.87728 l 0.0757,2.57969 0.0757,2.57969 h 2.18324 2.18323 l -4.2e-4,0.8035 -4.2e-4,0.8035 -2.18281,-0.01 -2.18282,-0.01 v 3.63804 3.63804 l -1.5875,1.8e-4 -1.5875,1.8e-4 z m 10.49878,6.87897 c 0,-0.3638 0.0893,-0.66146 0.19843,-0.66146 0.10914,0 0.19844,-3.03609 0.19844,-6.74687 0,-3.85694 -0.10272,-6.74688 -0.23981,-6.74688 -0.1319,0 -0.17754,-0.23812 -0.10144,-0.52917 0.1194,-0.45657 0.36099,-0.52919 1.76117,-0.52936 l 1.62279,-1.9e-4 v 6.81321 6.81322 h 2.05073 2.05073 l -2.1e-4,1.12448 -2.1e-4,1.12448 h -3.77031 -3.77031 z m 21.50498,-7.27589 0.0737,-7.93765 h 1.7122 c 1.37437,0 1.7122,0.0814 1.7122,0.41249 0,0.24442 0.12446,0.33557 0.30546,0.2237 0.17602,-0.10878 0.23413,-0.0734 0.13712,0.0836 -0.23037,0.37275 0.99087,3.30973 1.27053,3.05552 0.1231,-0.11189 0.14631,-0.0678 0.0516,0.098 -0.20632,0.36111 0.84653,3.00585 1.19661,3.00585 0.1347,0 0.17685,0.11014 0.0936,0.24476 -0.18354,0.29698 0.38033,1.60733 0.69167,1.60733 0.12217,0 0.19235,0.14883 0.15597,0.33073 -0.0364,0.1819 0.11245,0.33073 0.33073,0.33073 0.33787,0 0.39688,-0.69821 0.39688,-4.6964 v -4.69639 l 1.05833,-1.1e-4 1.05833,-1.1e-4 -0.0737,7.93765 -0.0737,7.93765 h -1.52637 -1.52636 l -1.17802,-2.75213 c -0.64792,-1.51368 -1.28572,-2.68591 -1.41734,-2.60496 -0.13163,0.081 -0.16356,0.0246 -0.071,-0.12522 0.15064,-0.24375 -1.34544,-4.06682 -1.74965,-4.47103 -0.35618,-0.35618 -0.47585,1.29544 -0.40036,5.52518 l 0.079,4.42886 -1.19062,-2e-4 -1.19063,-2.1e-4 z m -6.98943,7.47494 -4.26986,-0.0796 -0.12522,-0.65505 c -0.0689,-0.36028 -0.0227,-0.65505 0.10267,-0.65505 0.12534,0 0.2279,-2.79797 0.2279,-6.2177 0,-3.41974 -0.0984,-6.21771 -0.21876,-6.21771 -0.12032,0 -0.16634,-0.35719 -0.10226,-0.79375 l 0.11649,-0.79375 h 4.07101 4.07102 v 0.82378 c 0,0.76153 -0.0589,0.81513 -0.77978,0.70933 -0.42888,-0.063 -0.71951,-0.0169 -0.64584,0.10226 0.0737,0.11919 -0.711,0.21671 -1.7437,0.21671 h -1.87762 l 0.0761,2.4474 0.0761,2.44739 1.9413,0.0782 c 1.45789,0.0587 1.89243,-8.6e-4 1.74506,-0.23931 -0.12425,-0.20103 -0.0842,-0.24826 0.10922,-0.12874 0.16801,0.10384 0.30556,0.56872 0.30568,1.03307 l 2.1e-4,0.84428 h -2.05074 -2.05073 v 2.77813 2.77812 h 2.71233 2.71233 l -3.5e-4,0.8599 c -1.9e-4,0.47294 -0.0301,0.83329 -0.0665,0.80078 -0.0364,-0.0325 -1.98759,-0.0949 -4.33601,-0.13871 z m -52.725101,-6.56228 c 0.02248,-1.03285 0.0255,-1.03587 0.257696,-0.2577 0.145294,0.48693 0.136616,0.88575 -0.02274,1.04511 -0.167205,0.1672 -0.24971,-0.1093 -0.234954,-0.78741 z m -6.967254,-2.90027 c -0.06922,-0.36211 -0.03158,-0.65838 0.08364,-0.65838 0.11522,0 0.261089,-0.26789 0.324153,-0.59531 0.06306,-0.32742 0.130876,-0.0963 0.150694,0.51355 0.04011,1.23431 -0.362116,1.76736 -0.558482,0.74014 z m 7.120901,0.48815 c -0.09701,-0.097 -0.178212,-0.66256 -0.18044,-1.25677 -0.003,-0.79501 -0.0718,-0.97555 -0.260532,-0.68351 -0.300072,0.46433 -0.315375,0.0925 -0.02656,-0.64529 0.153876,-0.39305 0.297282,-0.13012 0.613318,1.12448 0.375431,1.4904 0.3308,1.93768 -0.145791,1.46109 z"
         id="path2" /><path
         style="fill:#000637"
         d="m 62.963562,164.15843 c -2.245429,-1.35213 -3.649748,-2.56959 -5.02398,-4.35551 -1.361125,-1.76889 -2.956679,-4.95672 -3.175549,-6.34458 -0.102594,-0.65055 0.0011,-0.49313 0.348444,0.52917 1.548813,4.55798 4.71547,8.37791 8.579141,10.34901 l 0.999011,0.50966 v -1.2045 c 0,-1.42478 0.443838,-2.58742 1.437698,-3.76608 0.398276,-0.47233 0.822803,-1.18671 0.943395,-1.5875 0.177105,-0.58862 0.223628,-0.62158 0.241998,-0.17145 0.01251,0.30649 -0.394438,1.10362 -0.904323,1.7714 -1.178123,1.54294 -1.454185,2.28451 -1.454185,3.90626 0,0.71813 -0.0963,1.3057 -0.214003,1.3057 -0.117701,0 -0.917642,-0.42371 -1.777647,-0.94158 z m 15.749982,-0.71934 c 0,-1.71565 -0.229014,-2.26747 -1.525865,-3.67662 -0.462167,-0.50219 -0.79009,-1.38465 -1.130674,-3.04271 -0.263842,-1.28446 -0.607493,-2.67055 -0.76367,-3.08021 -0.388209,-1.01828 -0.373204,-1.05473 0.358637,-0.87104 0.592464,0.14869 0.677273,0.0426 1.087104,-1.36038 0.41221,-1.4111 0.413519,-1.66585 0.01801,-3.50604 -0.756594,-3.52023 -0.907336,-3.89968 -1.620272,-4.07862 -0.481537,-0.12085 -0.656605,-0.34237 -0.656605,-0.83079 v -0.666 l -2.579687,0.0757 -2.579688,0.0757 -0.08372,0.72761 c -0.05562,0.48337 -0.233238,0.72059 -0.529166,0.70671 -0.27533,-0.0129 -0.319141,-0.0719 -0.114718,-0.15434 0.181901,-0.0734 0.330729,-0.34707 0.330729,-0.60817 0,-0.89201 0.636196,-1.09247 3.214498,-1.01282 2.355175,0.0728 2.478196,0.10572 2.56046,0.686 0.04932,0.34791 0.35481,0.71161 0.711688,0.84729 0.66956,0.25457 0.865262,0.76879 1.616586,4.24772 0.411135,1.90372 0.407753,2.07639 -0.06995,3.57188 -0.426499,1.33518 -0.589533,1.5622 -1.084332,1.5099 -0.530366,-0.0561 -0.557747,0.003 -0.306694,0.66146 0.151615,0.39766 0.491534,1.77393 0.755376,3.05839 0.340584,1.65806 0.668507,2.54052 1.130674,3.04271 1.274965,1.38537 1.525865,1.97072 1.525865,3.55984 v 1.54414 l 1.653646,-0.87277 c 2.559102,-1.35067 5.396937,-4.34215 6.731321,-7.09576 1.269962,-2.62066 1.6911,-4.25855 1.93887,-7.54062 0.178711,-2.36728 0.179999,-2.37071 0.21963,-0.58416 0.05699,2.56887 -0.623067,5.53068 -1.862094,8.10992 -0.858896,1.78793 -1.502677,2.66052 -3.223653,4.36938 -1.290493,1.2814 -2.800064,2.47764 -3.774964,2.99142 -0.893495,0.47088 -1.697166,0.85615 -1.785937,0.85615 -0.08877,0 -0.161402,-0.74742 -0.161402,-1.66092 z m -11.335306,-6.54117 c 0,-0.3638 0.06005,-0.51263 0.133452,-0.33073 0.0734,0.18191 0.0734,0.47956 0,0.66146 -0.0734,0.1819 -0.133452,0.0331 -0.133452,-0.33073 z m 82.026662,0.0257 c -1.95179,-0.6741 -2.04551,-0.81934 -1.37579,-2.13211 l 0.56679,-1.11099 0.63514,0.68533 c 1.25773,1.35711 2.84249,1.56096 4.0747,0.52413 1.24705,-1.04933 1.14357,-2.24207 -0.31661,-3.64932 -0.62186,-0.59931 -1.86168,-1.52456 -2.75516,-2.05611 -1.79819,-1.06978 -2.41299,-1.82038 -2.64079,-3.22411 -0.37583,-2.31599 0.83503,-4.34408 2.94657,-4.93528 1.47445,-0.41282 3.65963,-0.24818 4.96105,0.37379 l 0.98413,0.47033 -0.53327,1.04529 -0.53327,1.0453 -0.80189,-0.67475 c -1.56574,-1.31748 -3.67171,-0.69658 -3.67171,1.08252 0,0.94247 0.77423,1.72513 3.04334,3.07649 0.87348,0.52019 1.84182,1.22298 2.15187,1.56175 1.38164,1.50964 1.79337,3.57429 1.06191,5.32494 -0.36768,0.87998 -2.07726,2.56705 -2.60129,2.56705 -0.16198,0 0.0991,-0.26789 0.58019,-0.59531 1.35942,-0.92521 1.92334,-1.87197 2.05409,-3.44858 0.20603,-2.48446 -0.65893,-3.64294 -4.37328,-5.85734 -1.79215,-1.06843 -2.18142,-1.55653 -2.18142,-2.73525 0,-1.78608 2.38068,-2.54982 3.91743,-1.25673 l 0.78302,0.65887 0.33381,-0.80588 c 0.37849,-0.91376 0.25028,-1.10308 -1.03884,-1.53408 -2.46642,-0.82461 -5.55872,0.047 -6.4424,1.81597 -1.08617,2.17428 -0.39966,4.31108 1.83512,5.71189 2.92751,1.83502 3.56079,2.32635 3.93757,3.05496 0.77377,1.49631 0.25197,3.06339 -1.22352,3.67457 -1.0025,0.41524 -2.22132,0.16774 -3.327,-0.6756 l -0.87212,-0.6652 -0.43169,0.8348 c -0.51374,0.99347 -0.4163,1.09161 1.71197,1.72436 0.94117,0.27981 1.93915,0.37706 2.91042,0.28361 0.94435,-0.0909 1.23925,-0.0639 0.81665,0.0746 -1.11433,0.36522 -2.70907,0.27612 -4.18572,-0.23388 z m -46.94004,-6.15776 c 0.0391,-3.53963 0.10694,-6.97148 0.15074,-7.62632 0.0438,-0.65484 0.0892,1.96453 0.10096,5.82083 0.0117,3.85631 -0.0561,7.28815 -0.15075,7.62633 -0.0946,0.33817 -0.14006,-2.2812 -0.10095,-5.82084 z m 3.36927,5.27212 c -0.0902,-0.61847 -0.12721,-2.25558 -0.0824,-3.63802 l 0.0816,-2.51354 2.18282,0.01 2.18281,0.01 4.2e-4,-0.8035 4.2e-4,-0.8035 h -2.18323 -2.18324 l -0.016,-2.64584 -0.016,-2.64583 0.092,2.60643 0.092,2.60643 2.23909,-0.0929 2.2391,-0.0929 -4e-5,1.0952 -4e-5,1.0952 -2.28075,-0.14229 -2.28075,-0.14229 0.10552,3.61115 c 0.058,1.98614 0.0796,3.61116 0.048,3.61116 -0.0316,0 -0.13128,-0.50602 -0.22144,-1.12448 z m 7.20413,0.5741 c 0.0936,-0.35777 0.21349,-0.4777 0.27954,-0.27954 0.0636,0.19088 -0.0101,0.47285 -0.16386,0.6266 -0.19634,0.19634 -0.23077,0.093 -0.11568,-0.34706 z m 7.74424,-0.5741 2.1e-4,-1.12448 h -2.05073 -2.05073 v -6.81322 -6.81321 l -1.63425,1.9e-4 c -1.33384,1.6e-4 -1.65648,0.0853 -1.75524,0.46322 -0.0911,0.34843 -0.1286,0.31569 -0.15169,-0.13229 -0.0292,-0.56543 0.0656,-0.59533 1.88753,-0.59553 l 1.91823,-2e-4 -0.0862,6.91453 -0.0862,6.91453 2.13675,-0.12369 2.13675,-0.1237 v 1.27917 c 0,0.70353 -0.0595,1.27916 -0.13229,1.27916 -0.0728,0 -0.1322,-0.50602 -0.13208,-1.12448 z m 13.62583,-6.98034 v -8.05448 l 1.94276,0.076 1.94276,0.076 1.43252,3.41569 c 0.78789,1.87862 1.38837,3.45984 1.33439,3.51381 -0.054,0.054 -0.73941,-1.45235 -1.52319,-3.34738 l -1.42507,-3.44552 -1.65365,-0.002 -1.65364,-0.002 v 7.78959 c 0,4.28428 -0.0893,7.84482 -0.19844,7.91233 -0.10914,0.0675 -0.19844,-3.50178 -0.19844,-7.93174 z m 2.68993,7.92843 c -0.097,-0.097 -0.15202,-2.26991 -0.12224,-4.82865 l 0.0541,-4.65225 0.14429,4.7625 c 0.1602,5.28761 0.16548,4.96008 -0.0762,4.7184 z m 2.34901,-4.66519 c -1.14762,-2.64864 -2.14325,-4.93478 -2.21251,-5.0803 -0.084,-0.17639 -0.04,-0.17639 0.13182,0 0.33006,0.33881 4.39013,9.67315 4.26281,9.80047 -0.0525,0.0525 -1.03451,-2.07152 -2.18212,-4.72017 z m 5.52821,-3.02993 0.0162,-8.00379 -1.06315,1.5e-4 -1.06316,1.5e-4 0.0398,4.69635 0.0398,4.69636 -0.17055,-4.49792 c -0.0938,-2.47386 -0.2654,-4.64675 -0.38134,-4.82865 -0.15986,-0.25081 0.1606,-0.33079 1.32617,-0.33099 l 1.53697,-2.7e-4 -0.0686,6.01954 c -0.0377,3.31074 -0.10455,6.97204 -0.14847,8.1362 -0.0439,1.16417 -0.0726,-1.48504 -0.0637,-5.88713 z m -21.77591,6.87932 c 0.0304,-0.61408 0.0538,-0.63573 0.14985,-0.13876 0.11128,0.57575 0.20897,0.59061 4.39574,0.66848 l 4.28192,0.0796 -4.43177,0.0591 -4.43177,0.0591 z m -55.581113,-0.51194 c -0.0096,-0.31795 0.106265,-0.90339 0.257425,-1.30097 0.207147,-0.54483 0.190856,-0.77616 -0.06615,-0.93921 -0.264433,-0.16777 -0.266735,-0.21725 -0.01025,-0.22039 0.181901,-0.002 0.33073,-0.18265 0.33073,-0.40093 0,-0.21828 0.182782,-0.39687 0.406184,-0.39687 0.320538,0 0.34804,0.10864 0.13043,0.51525 -0.151664,0.28338 -0.445674,1.14659 -0.653355,1.91823 -0.20768,0.77163 -0.385437,1.14284 -0.395014,0.82489 z m 45.870783,-6.56566 c 1.5e-4,-3.78355 0.0373,-5.29456 0.0826,-3.35782 0.0453,1.93674 0.0452,5.03236 -2.7e-4,6.87916 -0.0454,1.8468 -0.0824,0.2622 -0.0823,-3.52134 z m 10.05299,0 c 1.7e-4,-3.4925 0.0378,-4.88466 0.0837,-3.09368 0.0458,1.79097 0.0457,4.64847 -3.2e-4,6.34999 -0.046,1.70153 -0.0835,0.23619 -0.0833,-3.25631 z m 3.17434,5.86713 c -0.074,-0.19282 -0.10002,-1.47274 -0.0578,-2.84427 l 0.0767,-2.4937 h 2.05073 2.05074 l 2.3e-4,-0.79375 2.3e-4,-0.79375 h -2.05096 -2.05097 l -0.0166,-2.51354 -0.0166,-2.51354 0.0931,2.47494 0.0931,2.47495 2.10638,-0.0957 2.10637,-0.0956 v 1.08268 1.08269 l -2.11667,-0.12253 -2.11666,-0.12254 v 2.70463 2.70462 l 2.62095,-0.0909 c 1.44153,-0.05 2.5656,-0.002 2.49793,0.1075 -0.0677,0.10914 -1.25083,0.19843 -2.62926,0.19843 -1.83659,0 -2.54218,-0.0937 -2.64076,-0.35057 z m -59.623804,-2.20747 c -0.01149,-0.17 -0.08941,-0.52719 -0.173157,-0.79375 -0.14474,-0.4607 -0.137274,-0.46128 0.151018,-0.0117 0.166807,0.26015 0.244728,0.61734 0.173157,0.79375 -0.09392,0.23151 -0.135941,0.23476 -0.151018,0.0117 z m 7.610976,-2.50011 c 0.07767,-1.37868 0.14567,-1.5652 0.457115,-1.25376 0.504475,0.50448 0.803717,2.07858 0.395145,2.07858 -0.172299,0 -0.251778,-0.0995 -0.176619,-0.22111 0.07516,-0.12161 0.0261,-0.56809 -0.109021,-0.99218 -0.214449,-0.67309 -0.238239,-0.60593 -0.187182,0.52844 0.03217,0.71474 -0.06057,1.34006 -0.206094,1.3896 -0.163694,0.0557 -0.229792,-0.52752 -0.173344,-1.52957 z m -6.216518,0.96559 c 0.08197,-0.21363 0.01678,-0.47015 -0.144865,-0.57005 -0.177973,-0.10999 -0.219439,-0.0611 -0.105121,0.12382 0.103833,0.168 0.04996,0.30546 -0.119719,0.30546 -0.172615,0 -0.237765,-0.18435 -0.147907,-0.41851 0.08833,-0.23019 0.1606,-0.56462 0.1606,-0.74318 0,-0.17857 0.148828,-0.52614 0.330729,-0.77239 0.279383,-0.37821 0.334047,-0.22175 0.352103,1.00777 0.01176,0.80051 -0.09028,1.45548 -0.226745,1.45548 -0.136465,0 -0.181049,-0.17478 -0.09907,-0.3884 z m -1.902736,-0.40535 c 0,-0.3638 0.06005,-0.51263 0.133452,-0.33073 0.0734,0.1819 0.0734,0.47956 0,0.66146 -0.0734,0.1819 -0.133452,0.0331 -0.133452,-0.33073 z m 74.878282,-1.46654 c -0.44331,-0.97295 -0.35873,-1.18052 0.12061,-0.29601 0.22384,0.41305 0.35748,0.8005 0.29697,0.86101 -0.0605,0.0605 -0.24842,-0.19374 -0.41758,-0.565 z m -65.483191,-0.43609 c -0.09772,-0.38937 -0.41553,-0.78343 -0.706233,-0.87569 -0.388002,-0.12315 -0.528552,-0.40047 -0.528552,-1.0429 0,-0.48132 -0.0776,-1.26315 -0.172451,-1.73739 -0.134366,-0.67183 -0.09054,-0.8353 0.198437,-0.74019 0.363263,0.11957 1.639296,4.31927 1.471054,4.84156 -0.04652,0.1444 -0.164531,-0.056 -0.262255,-0.44539 z m -0.622757,-2.52914 c -0.505709,-1.94249 -0.655338,-2.0868 -0.4584,-0.44211 0.19596,1.63652 0.296984,1.96346 0.606701,1.96346 0.136776,0 0.07034,-0.68152 -0.148301,-1.52135 z m -8.772334,2.3151 c 0,-0.3638 0.06005,-0.51263 0.133452,-0.33073 0.0734,0.1819 0.0734,0.47956 0,0.66146 -0.0734,0.1819 -0.133452,0.0331 -0.133452,-0.33073 z m 1.042931,-0.31183 c 0.0145,-0.1923 0.121699,-0.64728 0.238209,-1.01109 0.208985,-0.65255 0.212191,-0.65323 0.23821,-0.0505 0.04765,1.10369 0.556182,0.31088 0.529167,-0.82498 -0.02253,-0.94706 -0.05728,-1.01234 -0.23821,-0.4474 -0.130866,0.40863 -0.221917,0.49106 -0.23821,0.21566 -0.03721,-0.62891 0.44192,-1.80316 0.735738,-1.80316 0.308518,0 0.04212,3.27296 -0.2765,3.39706 -0.126763,0.0494 -0.406945,0.26624 -0.622628,0.48192 -0.300072,0.30007 -0.385957,0.31005 -0.365776,0.0425 z m -0.793101,-0.7465 c -0.03589,-0.68668 0.725241,-3.24051 1.056558,-3.54508 0.237503,-0.21833 0.264415,-0.19918 0.107346,0.0764 -0.115291,0.20228 -0.419667,1.15478 -0.676391,2.11667 -0.256723,0.96188 -0.476104,1.57029 -0.487513,1.35201 z m 22.249555,-1.45521 c 0.0054,-0.43656 0.06469,-0.58313 0.131774,-0.32569 0.06708,0.25743 0.06267,0.61461 -0.0098,0.79375 -0.07248,0.17913 -0.127362,-0.0315 -0.12197,-0.46806 z M 54.64911,145.12397 c 0.01064,-1.01167 1.51553,-4.34759 2.72737,-6.04583 2.325067,-3.25829 5.540827,-5.54071 9.524831,-6.76036 0.997594,-0.3054 2.426344,-0.53837 3.174999,-0.51771 l 1.361193,0.0376 -1.719792,0.18007 c -6.498735,0.68045 -12.128015,5.17055 -14.297624,11.40426 -0.4271,1.22714 -0.77404,1.99304 -0.770977,1.702 z m 34.019261,-0.71692 c -0.101866,-0.53982 -0.668178,-1.94643 -1.25847,-3.1258 -2.550655,-5.09605 -7.737909,-8.6992 -13.300592,-9.23879 -1.945628,-0.18874 -2.007865,-0.21116 -0.676874,-0.2439 5.0073,-0.12316 11.411089,3.95989 13.951381,8.8954 1.171437,2.27597 1.747967,3.86874 1.580402,4.36617 -0.06085,0.18063 -0.193981,-0.11325 -0.295847,-0.65308 z m 20.634129,-1.48417 c -0.0737,-0.11919 0.21697,-0.16521 0.64585,-0.10226 0.72085,0.1058 0.77977,0.0522 0.77977,-0.70933 v -0.82378 h -4.07899 c -3.01563,0 -4.11378,0.0862 -4.21244,0.33073 -0.0797,0.19757 -0.14187,0.14431 -0.15434,-0.13229 -0.0191,-0.42311 0.35543,-0.46303 4.34473,-0.46303 h 4.36563 v 1.05834 c 0,0.99482 -0.0467,1.05833 -0.77814,1.05833 -0.42797,0 -0.8384,-0.0975 -0.91207,-0.21671 z m 20.90209,0 c -0.0737,-0.11919 0.21696,-0.16521 0.64584,-0.10226 0.72085,0.1058 0.77978,0.0522 0.77978,-0.70933 v -0.82378 h -4.08347 -4.08347 l -0.09,0.7276 c -0.0882,0.71284 -0.093,0.71016 -0.23633,-0.13229 l -0.14629,-0.8599 h 4.4521 4.45209 v 1.05834 c 0,0.99482 -0.0467,1.05833 -0.77814,1.05833 -0.42797,0 -0.8384,-0.0975 -0.91206,-0.21671 z"
         id="path1" /></g></g></svg>
